<?xml version="1.0" encoding="UTF-8"?> <svg xmlns="http://www.w3.org/2000/svg" xmlns:xlink="http://www.w3.org/1999/xlink" id="Layer_1" data-name="Layer 1" viewBox="0 0 592.19 224.83"> <defs> <style>.cls-1{fill:#2e3192;}.cls-2{fill:none;stroke:#58595b;stroke-miterlimit:10;stroke-width:0.68px;}.cls-3{fill:url(#linear-gradient);}.cls-4{fill:url(#linear-gradient-2);}.cls-5{fill:url(#linear-gradient-3);}.cls-6{fill:#ed1c24;}.cls-7{fill:#f7941d;}</style> <linearGradient id="linear-gradient" x1="706.68" y1="355.33" x2="815.59" y2="355.33" gradientUnits="userSpaceOnUse"> <stop offset="0" stop-color="#88171a"></stop> <stop offset="0.45" stop-color="#db1f26"></stop> <stop offset="1" stop-color="#f1564b"></stop> </linearGradient> <linearGradient id="linear-gradient-2" x1="706.68" y1="317.59" x2="815.59" y2="317.59" gradientUnits="userSpaceOnUse"> <stop offset="0" stop-color="#f1564b"></stop> <stop offset="0.55" stop-color="#db1f26"></stop> <stop offset="1" stop-color="#88171a"></stop> </linearGradient> <linearGradient id="linear-gradient-3" x1="807.69" y1="292.2" x2="856.58" y2="426.52" gradientUnits="userSpaceOnUse"> <stop offset="0.13" stop-color="#ed1c24"></stop> <stop offset="0.21" stop-color="#cb2038"></stop> <stop offset="0.57" stop-color="#2e3192"></stop> </linearGradient> </defs> <title>Anex_Kalpli_Logo_RU</title> <path class="cls-1" d="M317.28,500.89a.4.4,0,0,1-.33-.18l-6.57-9.9v16.27a.38.38,0,0,1-.39.4h-1a.39.39,0,0,1-.39-.4V488.66a.39.39,0,0,1,.39-.4h1.39a.44.44,0,0,1,.33.16l7.12,10.77L325,488.42a.37.37,0,0,1,.33-.16h1.39a.39.39,0,0,1,.39.4v18.42a.39.39,0,0,1-.39.4h-1a.38.38,0,0,1-.39-.4V490.81l-6.56,9.9a.38.38,0,0,1-.32.18Z" transform="translate(-299.18 -285.73)"></path> <path class="cls-1" d="M336.54,488.26a.39.39,0,0,1,.4.4v6.77h4c4,0,6.42,2.4,6.42,6s-2.43,6-6.42,6h-5.4a.39.39,0,0,1-.4-.4V488.66a.39.39,0,0,1,.4-.4Zm4.24,8.7h-3.84v9h3.84c3.16,0,4.78-1.74,4.78-4.48S343.94,497,340.78,497Zm10.2-8.7a.39.39,0,0,1,.4.4v18.42a.39.39,0,0,1-.4.4h-1a.39.39,0,0,1-.4-.4V488.66a.39.39,0,0,1,.4-.4Z" transform="translate(-299.18 -285.73)"></path> <path class="cls-1" d="M372.82,497a.4.4,0,0,1,.38-.4c4-.15,7.06-1.48,7.06-4.05,0-1.79-1.58-3.05-4.95-3.05a11.74,11.74,0,0,0-4.23.82.39.39,0,0,1-.55-.34l-.09-.86a.45.45,0,0,1,.27-.42,14.14,14.14,0,0,1,4.69-.79c4.09,0,6.68,1.8,6.68,4.5s-2.42,4.4-5.31,5c3.37.64,5.55,2.37,5.55,5.22,0,3.13-2.92,5.19-7.25,5.19a14.74,14.74,0,0,1-4.79-.73.4.4,0,0,1-.25-.39l.08-.9a.38.38,0,0,1,.53-.31,12.82,12.82,0,0,0,4.39.74c3.38,0,5.48-1.48,5.48-3.65,0-2.75-2.77-4.16-7.32-4.33a.4.4,0,0,1-.37-.4Z" transform="translate(-299.18 -285.73)"></path> <path class="cls-1" d="M396.68,488.26a.42.42,0,0,1,.39.29l7.29,18.4c.11.27,0,.53-.32.53h-1.12a.37.37,0,0,1-.37-.26l-1.93-5h-9.31l-1.92,5a.37.37,0,0,1-.37.26h-1.1a.36.36,0,0,1-.34-.53l7.29-18.4a.41.41,0,0,1,.38-.29Zm-4.76,12.44H400l-4-10.49Z" transform="translate(-299.18 -285.73)"></path> <path class="cls-1" d="M410.57,488.66a.39.39,0,0,1,.4-.4h6c3.86,0,6.22,2.06,6.22,5a4.1,4.1,0,0,1-2.58,4.14,4.66,4.66,0,0,1,3.57,4.75c0,3.35-2.5,5.35-7,5.35H411a.39.39,0,0,1-.4-.4Zm6.16,1.14h-4.4v6.94h4.2c3.27,0,4.81-1,4.81-3.46C421.34,491.11,419.69,489.8,416.73,489.8Zm0,8.48h-4.37V506H417c3.55,0,5.33-1.32,5.33-3.82C422.3,499.35,420.41,498.28,416.7,498.28Z" transform="translate(-299.18 -285.73)"></path> <path class="cls-1" d="M438.55,507.81c-5.3,0-8.4-4.31-8.4-9.94s3.1-9.94,8.4-9.94,8.41,4.31,8.41,9.94S443.85,507.81,438.55,507.81Zm0-18.29c-4.09,0-6.59,3.38-6.59,8.35s2.5,8.35,6.59,8.35,6.6-3.38,6.6-8.35S442.65,489.52,438.55,489.52Z" transform="translate(-299.18 -285.73)"></path> <path class="cls-1" d="M454.06,488.66a.38.38,0,0,1,.4-.4h10.85a.39.39,0,0,1,.4.4v.74a.39.39,0,0,1-.4.4h-9.49v7h8.8a.4.4,0,0,1,.4.4v.74a.4.4,0,0,1-.4.4h-8.8V506h9.74a.39.39,0,0,1,.4.39v.74a.39.39,0,0,1-.4.4h-11.1a.38.38,0,0,1-.4-.4Z" transform="translate(-299.18 -285.73)"></path> <path class="cls-1" d="M472.93,488.66a.39.39,0,0,1,.39-.4h6c3.86,0,6.23,2.06,6.23,5a4.1,4.1,0,0,1-2.59,4.14,4.66,4.66,0,0,1,3.57,4.75c0,3.35-2.49,5.35-7,5.35h-6.21a.39.39,0,0,1-.39-.4Zm6.15,1.14h-4.4v6.94h4.21c3.26,0,4.8-1,4.8-3.46C483.69,491.11,482.05,489.8,479.08,489.8Zm0,8.48h-4.37V506h4.65c3.54,0,5.32-1.32,5.32-3.82C484.65,499.35,482.76,498.28,479.05,498.28Z" transform="translate(-299.18 -285.73)"></path> <path class="cls-1" d="M500.71,488.26a.41.41,0,0,1,.39.29l7.29,18.4c.11.27,0,.53-.31.53H507a.37.37,0,0,1-.37-.26l-1.92-5h-9.31l-1.93,5a.37.37,0,0,1-.37.26H492a.36.36,0,0,1-.34-.53l7.29-18.4a.41.41,0,0,1,.39-.29ZM496,500.7h8.1L500,490.21Z" transform="translate(-299.18 -285.73)"></path> <path class="cls-1" d="M518.86,503.25c0,3.22-1.55,4.56-4.36,4.56a8.06,8.06,0,0,1-1.45-.13.44.44,0,0,1-.33-.44l.07-.8a.4.4,0,0,1,.47-.34,6.44,6.44,0,0,0,1.21.12c1.81,0,2.64-.93,2.64-3.43V488.66a.37.37,0,0,1,.38-.4h11.08a.39.39,0,0,1,.4.4v18.42a.4.4,0,0,1-.41.4h-.95a.39.39,0,0,1-.4-.4V489.8h-8.35Z" transform="translate(-299.18 -285.73)"></path> <path class="cls-1" d="M551.76,507.08a.39.39,0,0,1-.4.4h-1a.39.39,0,0,1-.4-.4V490.56L539.3,507.29a.37.37,0,0,1-.34.19h-1.54a.37.37,0,0,1-.38-.4V488.66a.37.37,0,0,1,.38-.4h1a.38.38,0,0,1,.4.4v16.52l10.67-16.73a.38.38,0,0,1,.34-.19h1.55a.39.39,0,0,1,.4.4Z" transform="translate(-299.18 -285.73)"></path> <path class="cls-1" d="M580.28,500.89a.41.41,0,0,1-.33-.18l-6.56-9.9v16.27a.39.39,0,0,1-.4.4h-1a.39.39,0,0,1-.4-.4V488.66a.39.39,0,0,1,.4-.4h1.39a.46.46,0,0,1,.33.16l7.11,10.77L588,488.42a.35.35,0,0,1,.32-.16h1.39a.39.39,0,0,1,.4.4v18.42a.39.39,0,0,1-.4.4h-1a.39.39,0,0,1-.4-.4V490.81l-6.55,9.9a.4.4,0,0,1-.33.18Z" transform="translate(-299.18 -285.73)"></path> <path class="cls-1" d="M612.88,507.08a.39.39,0,0,1-.4.4h-1a.39.39,0,0,1-.4-.4V490.56l-10.67,16.73a.37.37,0,0,1-.34.19h-1.54a.37.37,0,0,1-.38-.4V488.66a.37.37,0,0,1,.38-.4h1a.38.38,0,0,1,.39.4v16.52l10.67-16.73a.39.39,0,0,1,.35-.19h1.55a.39.39,0,0,1,.4.4Z" transform="translate(-299.18 -285.73)"></path> <path class="cls-1" d="M625.2,503.25c0,3.22-1.55,4.56-4.36,4.56a8.06,8.06,0,0,1-1.45-.13.44.44,0,0,1-.33-.44l.07-.8a.4.4,0,0,1,.47-.34,6.36,6.36,0,0,0,1.21.12c1.81,0,2.63-.93,2.63-3.43V488.66a.38.38,0,0,1,.39-.4h11.08a.39.39,0,0,1,.4.4v18.42a.4.4,0,0,1-.41.4H634a.39.39,0,0,1-.4-.4V489.8H625.2Z" transform="translate(-299.18 -285.73)"></path> <path class="cls-1" d="M647.63,503.25c0,3.22-1.55,4.56-4.36,4.56a8.06,8.06,0,0,1-1.45-.13.42.42,0,0,1-.32-.44l.06-.8a.4.4,0,0,1,.47-.34,6.44,6.44,0,0,0,1.21.12c1.81,0,2.64-.93,2.64-3.43V488.66a.37.37,0,0,1,.38-.4h11.08a.39.39,0,0,1,.4.4v18.42a.4.4,0,0,1-.41.4h-1a.39.39,0,0,1-.4-.4V489.8h-8.35Z" transform="translate(-299.18 -285.73)"></path> <path class="cls-1" d="M680.53,507.08a.39.39,0,0,1-.4.4h-1a.39.39,0,0,1-.4-.4V490.56l-10.67,16.73a.37.37,0,0,1-.34.19h-1.54a.37.37,0,0,1-.38-.4V488.66a.37.37,0,0,1,.38-.4h1a.38.38,0,0,1,.4.4v16.52l10.67-16.73a.39.39,0,0,1,.34-.19h1.55a.39.39,0,0,1,.4.4Z" transform="translate(-299.18 -285.73)"></path> <path class="cls-1" d="M696,507.81c-5.3,0-8.4-4.31-8.4-9.94s3.1-9.94,8.4-9.94,8.4,4.31,8.4,9.94S701.34,507.81,696,507.81Zm0-18.29c-4.09,0-6.59,3.38-6.59,8.35s2.5,8.35,6.59,8.35,6.59-3.38,6.59-8.35S700.13,489.52,696,489.52Z" transform="translate(-299.18 -285.73)"></path> <path class="cls-1" d="M711.55,488.66a.39.39,0,0,1,.4-.4h1a.39.39,0,0,1,.4.4v7.81h11v-7.81a.39.39,0,0,1,.4-.4h1a.39.39,0,0,1,.4.4v18.42a.39.39,0,0,1-.4.4h-1a.39.39,0,0,1-.4-.4V498h-11v9.07a.39.39,0,0,1-.4.4h-1a.39.39,0,0,1-.4-.4Z" transform="translate(-299.18 -285.73)"></path> <path class="cls-1" d="M735.54,488.26a.38.38,0,0,1,.39.4v6.77h4c4,0,6.43,2.4,6.43,6s-2.43,6-6.43,6h-5.39a.39.39,0,0,1-.4-.4V488.66a.39.39,0,0,1,.4-.4Zm4.24,8.7h-3.85v9h3.85c3.16,0,4.78-1.74,4.78-4.48S742.94,497,739.78,497Zm10.2-8.7a.39.39,0,0,1,.4.4v18.42a.39.39,0,0,1-.4.4h-1a.39.39,0,0,1-.4-.4V488.66a.39.39,0,0,1,.4-.4Z" transform="translate(-299.18 -285.73)"></path> <path class="cls-1" d="M783.3,489l-.07.85a.39.39,0,0,1-.59.29,8.64,8.64,0,0,0-3.39-.66c-5.14,0-8.15,3.38-8.15,8.35s3.12,8.35,8.22,8.35a8.44,8.44,0,0,0,3.4-.69c.28-.12.57,0,.59.29l.07.85a.44.44,0,0,1-.31.47,10.76,10.76,0,0,1-3.84.67c-6.08,0-9.94-4-9.94-9.94s3.86-9.94,9.89-9.94a10.89,10.89,0,0,1,3.8.64A.45.45,0,0,1,783.3,489Z" transform="translate(-299.18 -285.73)"></path> <path class="cls-1" d="M790.38,488.66a.38.38,0,0,1,.4-.4h10.85a.38.38,0,0,1,.39.4v.74a.39.39,0,0,1-.39.4h-9.49v7h8.8a.4.4,0,0,1,.4.4v.74a.4.4,0,0,1-.4.4h-8.8V506h9.73a.39.39,0,0,1,.4.39v.74a.39.39,0,0,1-.4.4H790.78a.38.38,0,0,1-.4-.4Z" transform="translate(-299.18 -285.73)"></path> <path class="cls-1" d="M814.76,500H811v7.09a.38.38,0,0,1-.4.4h-1a.38.38,0,0,1-.39-.4V488.66a.38.38,0,0,1,.39-.4h5.13c4.4,0,7.22,2.08,7.22,5.85S819.16,500,814.76,500Zm-.16-10.19H811v8.65h3.6c3.62,0,5.57-1.35,5.57-4.34S818.22,489.8,814.6,489.8Z" transform="translate(-299.18 -285.73)"></path> <path class="cls-1" d="M840.33,509.85a.38.38,0,0,1-.4.38H839a.37.37,0,0,1-.39-.38v-2.37H826.18v2.37a.38.38,0,0,1-.4.38h-1a.38.38,0,0,1-.4-.38v-3.51a.39.39,0,0,1,.4-.39h1a35.42,35.42,0,0,0,4.52-17.31.38.38,0,0,1,.39-.38h7.11a.38.38,0,0,1,.4.4V506h1.69a.39.39,0,0,1,.4.39Zm-3.85-3.9V489.8h-4.37A38.87,38.87,0,0,1,827.88,506Z" transform="translate(-299.18 -285.73)"></path> <path class="cls-1" d="M846.75,488.66a.38.38,0,0,1,.4-.4H858a.39.39,0,0,1,.4.4v.74a.39.39,0,0,1-.4.4H848.5v7h8.81a.4.4,0,0,1,.4.4v.74a.4.4,0,0,1-.4.4H848.5V506h9.74a.39.39,0,0,1,.4.39v.74a.39.39,0,0,1-.4.4H847.15a.38.38,0,0,1-.4-.4Z" transform="translate(-299.18 -285.73)"></path> <path class="cls-1" d="M878.35,506V488.66a.38.38,0,0,1,.4-.4h1a.37.37,0,0,1,.38.4v17.26h1.42a.38.38,0,0,1,.39.4v3.85a.38.38,0,0,1-.39.39h-1a.38.38,0,0,1-.39-.39v-2.69H866a.37.37,0,0,1-.38-.4V488.66a.37.37,0,0,1,.38-.4h1a.38.38,0,0,1,.4.4V506Z" transform="translate(-299.18 -285.73)"></path> <line id="_Контур_" data-name="&lt;Контур&gt;" class="cls-2" x1="363.31" y1="1.28" x2="363.31" y2="170.42"></line> <path id="_Контур_2" data-name="&lt;Контур&gt;" class="cls-3" d="M809.17,308.14l0,0a55,55,0,0,0-13.69-12.43c-10.07-6.6-22.33-9.94-36.46-9.94-14.73,0-27.24,4.66-37.17,13.84s-15.14,21.08-15.14,35.05a57.64,57.64,0,0,0,10.18,32.6c5.76,8.47,16,19.35,31.34,33.28L772,422.85A10.45,10.45,0,0,0,785.53,407c-12.36-11.18-10.47-9.53-22.83-20.71-12.86-11.53-21.87-21.26-26.78-28.91-4.64-7.23-7-14.64-7-22,0-8.68,3-15.56,9-21a31.72,31.72,0,0,1,22.19-8.33,41.55,41.55,0,0,1,23.3,6.7,67.14,67.14,0,0,1,13,12.28l-.09,0a21.32,21.32,0,0,1,2.58,21.88A17.16,17.16,0,0,0,811,340.92C814.92,336.66,819.77,320.58,809.17,308.14Z" transform="translate(-299.18 -285.73)"></path> <path id="_Контур_3" data-name="&lt;Контур&gt;" class="cls-4" d="M708.64,349.44a46.74,46.74,0,0,1,8.06-22.92C731,306,757.28,305.9,760.13,305.93a41.55,41.55,0,0,1,23.3,6.7,67.14,67.14,0,0,1,13,12.28l-.09,0a21.32,21.32,0,0,1,2.58,21.88A17.16,17.16,0,0,0,811,340.92c3.91-4.26,8.76-20.34-1.84-32.78l0,0a55,55,0,0,0-13.69-12.43c-10.07-6.6-22.33-9.94-36.46-9.94-14.73,0-27.24,4.66-37.17,13.84s-15.14,21.08-15.14,35.05a56.5,56.5,0,0,0,2,14.82Z" transform="translate(-299.18 -285.73)"></path> <path class="cls-5" d="M876.24,299.57c-9.94-9.18-22.45-13.84-37.18-13.84H839c-14.13,0-26.39,3.34-36.46,9.94a66.7,66.7,0,0,0-6.86,5.19c-.6.52-1.14,1-1.63,1.49l-.07.07,0,0a72,72,0,0,0-5.1,5.65l0,0c-10.61,12.44-5.76,28.52-1.84,32.78a17.15,17.15,0,0,0,12.13,5.85,21.77,21.77,0,0,1-1.57-12.55,21.46,21.46,0,0,1,4.15-9.33h0a67.26,67.26,0,0,1,12.94-12.26,41.55,41.55,0,0,1,23.3-6.7,31.72,31.72,0,0,1,22.19,8.33c6.06,5.48,9,12.36,9,21,0,7.39-2.35,14.8-7,22-4.91,7.65-13.92,17.38-26.78,28.91l-43,42.81-.09.09,0,0h0a10.26,10.26,0,0,0,14.43,14.58h0l.09-.08a1.21,1.21,0,0,1,.16-.16l43-43c15.34-13.93,25.58-24.81,31.34-33.28a57.64,57.64,0,0,0,10.18-32.6C891.37,320.65,886.28,308.86,876.24,299.57Z" transform="translate(-299.18 -285.73)"></path> <path class="cls-6" d="M497.61,371.39a41.37,41.37,0,0,0,13.19,2.08,42.52,42.52,0,0,0,13.25-2.08,39.62,39.62,0,0,0,8.93-4.15,42.1,42.1,0,0,0,15.43-16.32l1.59-3-14.87-8.41-1.71,3.24a25.26,25.26,0,0,1-9.34,10,26.06,26.06,0,0,1-24.93.93L536,321.23l12.46-11-1.58-2.55a41.87,41.87,0,0,0-15.15-14.05,40.83,40.83,0,0,0-14.34-5,37.9,37.9,0,0,0-6.54-.53c-1.13,0-2.23,0-3.32.12a42.89,42.89,0,0,0-39.36,42.57,41,41,0,0,0,4.39,18.8,45.64,45.64,0,0,0,8.25,11.25,42,42,0,0,0,16.85,10.56M485.5,326.78v0a24.16,24.16,0,0,1,7.07-14.2c.7-.69,1.42-1.35,2.15-1.95h0a24.47,24.47,0,0,1,16-5.45,24.85,24.85,0,0,1,13.45,3.74L487.49,341.5a25.51,25.51,0,0,1-2.27-10.72,26.08,26.08,0,0,1,.28-4" transform="translate(-299.18 -285.73)"></path> <path class="cls-6" d="M341.91,288.12a41.24,41.24,0,0,0-28.1,10.64c-.65.57-1.3,1.18-1.95,1.79a41.07,41.07,0,0,0-12.68,30.25c0,11.74,4.39,21.76,12.64,30.05a41.74,41.74,0,0,0,19.58,11.38,45.21,45.21,0,0,0,10.51,1.25,42.48,42.48,0,0,0,10.55-1.25c1-.21,1.87-.49,2.78-.78.35-.13.72-.25,1.09-.4h0a41.79,41.79,0,0,0,13.85-8.37l13.16,9.55,1.2.89V288.07l-14.4,10.85a41.06,41.06,0,0,0-28.27-10.8M360.06,349a24.63,24.63,0,0,1-13.6,7.09,25.79,25.79,0,0,1-4.55.38,25.78,25.78,0,0,1-19.45-42.52c.37-.46.77-.89,1.22-1.35A25.73,25.73,0,0,1,360.06,349" transform="translate(-299.18 -285.73)"></path> <path class="cls-6" d="M443.21,373.34h17.08V323.21a32.63,32.63,0,0,0-33.11-33.08,31.39,31.39,0,0,0-21.2,7.72l-11.88-9.63v85.12h17.08V323.21a15.93,15.93,0,0,1,16-16,15.71,15.71,0,0,1,11.41,4.52,15.25,15.25,0,0,1,4.62,11.5Z" transform="translate(-299.18 -285.73)"></path> <polygon class="cls-6" points="322.23 87.7 294.58 39.01 315.34 2.38 295.13 2.38 284.39 21.31 273.64 2.38 253.4 2.38 274.36 39.03 246.5 87.7 266.74 87.7 284.39 56.72 302 87.7 322.23 87.7"></polygon> <path class="cls-1" d="M460.3,402.51h0V385.8l-12.06,5.26v11.48h-9v11.32h9v16.19h0v6.37a21.76,21.76,0,0,0,6.5,16c.27.26.56.5.83.76l2.13,1.92,7.66-9.6-1.89-1.69-.07-.07a9.6,9.6,0,0,1-3.1-7.32V413.86h8.85V402.54H460.3Z" transform="translate(-299.18 -285.73)"></path> <path class="cls-6" d="M503.36,395.37c-.19-.23-.3,0-.38.29.7.37-.21-.12.38-.29" transform="translate(-299.18 -285.73)"></path> <path class="cls-6" d="M506.29,395.91c0-.05.09-.05.14-.09s-.12,0-.14.09" transform="translate(-299.18 -285.73)"></path> <path class="cls-6" d="M508.49,451.79h0a1.24,1.24,0,0,0-.22.18c.1,0,.14-.07.24-.18" transform="translate(-299.18 -285.73)"></path> <path class="cls-6" d="M531.56,419.38l.58-.22a24.25,24.25,0,0,1-.93-3.37,6.1,6.1,0,0,0-1.65-3,4.13,4.13,0,0,0-.33-2.19c-.8-.51-.88-.8-1.86-.89-.18-.22.15-.61.28-.81-.34-.94-.16-2.25-1.44-2.35l.41-.34c-.9-.36-2.07-.83-2.19-1.88-.51.12-1.23-.41-1.4.28-.32-.16.48-.74-.16-.62l.77-.28a10.81,10.81,0,0,0-4.43-3.24c.08-1.05-1.51-1-2.17-1.93-.78.09-1.43-1-2.33-.24l.19-.49c-.73-.42-1.76-.87-2.72-1.47-.58-.34-.81.39-1.37.51l.12-.51c-.59.16-.92.83-1.22,1.29h0c0-.05-.09-.05-.15-.05-.22-.22-.36,0-.63-.41a3.7,3.7,0,0,0,1.33-1.26c-.61-.39-1.54.76-1.78-.11a.71.71,0,0,0-1.16.53c.16-.21-.3-.46.06-.72a1.11,1.11,0,0,0-.93.24.65.65,0,0,0,.23.09c-.24.43-.55.46-.63,1a1.54,1.54,0,0,0-.49-.05c0-.45.5-.72.25-1.05-.35.34-.67.68-1,1a12.26,12.26,0,0,0-1.82-.09,25.42,25.42,0,0,0-7.8,1.18h0a5.39,5.39,0,0,1,2.64-.78,4.27,4.27,0,0,0,3.12-1.28c1.5-.6,2-2.74,2-2.74a43.56,43.56,0,0,1-5.89.67,56.29,56.29,0,0,0-6.19.55,27.24,27.24,0,0,1-4,2.31c-1.14.8-2.28,1.54-3.4,2.36l-.85.6-.86.64-.35.25-.09.08,0,0,0,0h0l0,0-.2.16-.81.67a17,17,0,0,0-5.11,6.89c.4-.15.6.34.58.64l-.24,0,.28.63c-.13.41-.67-.05-.59-.41a41.52,41.52,0,0,0-2.08,6.24c.74.31-.19,1.13.6,1.36-.17.06-.19,0-.33-.13.14,1.57.18,1.63-1,2.92q-.11.54-.18,1.08c-.05.36-.1.81-.13,1.14l0,.46,0,.59V424a24.2,24.2,0,0,0,.48,4.41,33.93,33.93,0,0,0,3,8.44,26.49,26.49,0,0,0,5.66,6.83,37.9,37.9,0,0,0,7.19,5,2.59,2.59,0,0,1,1.81-.07,2.89,2.89,0,0,0,1.83-.06l-.22.33c1-.17,1,.53,1.9,1.36.15-.42.44,0,.53-.72.54-.49.33,1.2,1,1.05-.07.26.09-.43.15-.17.82-.25.71-.16.62.12s-.19.79.66,1.34c2.7.32,5.42-.27,7.84.08-.16,0-.24-.54,0-.57.29,1.19.8-.36,1.26.08,0,.24-.2.34-.31.45,1.19.42,2-.43,3.18-.09a2.33,2.33,0,0,1,1.43-.33c.59,0,1.15,0,1.42-.42,0,.52.56.22.85.37.14-.79.66-.83,1.23-.84s1.2,0,1.44-.65l.07.24a33.81,33.81,0,0,0,3.92-2.1,12.46,12.46,0,0,0,3.33-3,10,10,0,0,1,2.16-1.47,4.23,4.23,0,0,0,1.87-2c.07-.38-.34-.37-.27-.67.29-.33.34.29.57.25.11-1,1.37-1.56,2-2.55-.12-.23,0-.53-.35-.62a2.45,2.45,0,0,0,1.31-1.68,3.78,3.78,0,0,1,1-1.89c-1.3-.09-.31-1-.41-1.47.14-.22.46-.13.65,0a5.74,5.74,0,0,1,1-2.43c0-.55-.61-.85-.29-1.41.94-.2.3-1.28.71-1.82a.91.91,0,0,1-.83-1.35l1,.3c-.42-2,.82-4.76-.71-6.92m-54,7.72s0,0,0-.06a1.37,1.37,0,0,0,0,.34.2.2,0,0,1-.07-.28m28.92-30.18s0,0,0,.07h0a.38.38,0,0,0-.24,0,.27.27,0,0,1,.29,0M503.63,405a18.82,18.82,0,0,1,11.61,4.5l.11.11a18.84,18.84,0,0,1,6.55,14.29,18.28,18.28,0,0,1-.21,2.68c0,.05,0,.09,0,.15-.1.63-.22,1.25-.38,1.86,0,.1,0,.21-.08.31a1.94,1.94,0,0,1-.05.2l0,.11a19.5,19.5,0,0,1-1.22,3.11c-.06.1-.1.2-.15.3h0a1.51,1.51,0,0,0-.09.18c-.32.59-.66,1.16-1,1.71s-.66.92-1,1.36l-.29.33-.29.32c-.39.44-.81.86-1.24,1.26l-.37.33-.22.21-.19.16a18.93,18.93,0,0,1-25.47-28l.09-.09a19.1,19.1,0,0,1,5.23-3.64c.41-.2.82-.38,1.24-.54s.86-.33,1.29-.47l.88-.22.3-.08a19.16,19.16,0,0,1,4.38-.52c.23,0,.45,0,.67,0M494,397.74c.31-.29.44.17.56.44h0c-.44.12-.9.29-1.31.44l-.06,0a5.19,5.19,0,0,0,.84-.91m-11.39,8.11c.18,0,.2.19.3.34,0-.7.58-1,1-1.27a1.08,1.08,0,0,0,.53-1.48l-.26-.69c.37,0,.7.37,1,.4-.14-.48.67-.77.38-1.32.27.14.2.32.33.46.47-.22.29-1.37.84-1.51l.07.35c1.24-.32,2.56-.65,3.75-1.08,0,0,0,.05-.08.05h0s0,0-.09,0h0s0,.06-.09.06a22.94,22.94,0,0,0-5.34,4.07,25.82,25.82,0,0,0-2.87,3.32,7.66,7.66,0,0,0,.58-1.73m-2.7,5.2a.14.14,0,0,0-.09.16,1.05,1.05,0,0,0-.29-.31.91.91,0,0,1,.38.15m-2.16,6.41h0a.66.66,0,0,0-.08.4c0-.13,0-.26,0-.39h.12m-.29,8.09a1,1,0,0,0,.09.53v0s0,0,0,.06a3.1,3.1,0,0,0-.25-.54.54.54,0,0,0,.15-.09m.08,2.4a.94.94,0,0,1,.28-.06v0a.45.45,0,0,0,0,.23,1.36,1.36,0,0,0-.32-.2m.55,1.24h0v0l0,0m.24,1.32h.19a.71.71,0,0,0,.17.37h0c-.26,0-.5.06-.36-.4m.36.71.07,0v0l.05,0v0l-.12-.07m2.16,4.6c-.18-.18-.17-.32-.09-.44h0a2.24,2.24,0,0,0,.22.38l-.14.05m1.9,3.64c0-.28-.81-.65-1-.83.3-.41.11.19.46,0l.2-.67a.22.22,0,0,0,.17,0l0,.05a13.18,13.18,0,0,0,1.11,1.31,7,7,0,0,1-1,.1m1.58.86c.07,0,.13,0,.2-.11h0a.11.11,0,0,0,0,.06Z" transform="translate(-299.18 -285.73)"></path> <path class="cls-6" d="M530.78,433.09a.73.73,0,0,0-.09-.08c0,.12,0,.22-.07.35Z" transform="translate(-299.18 -285.73)"></path> <path class="cls-6" d="M504.12,395.3a6.63,6.63,0,0,0,.17,1.22c.35-.54-.05-.8-.17-1.22" transform="translate(-299.18 -285.73)"></path> <path class="cls-7" d="M498.58,405.46l-.3.08-.88.22c-.43.14-.86.3-1.29.47s-.83.34-1.24.54a18.92,18.92,0,0,0-5.23,3.65l-.09.08a18.94,18.94,0,0,0,25.47,28l.19-.18.22-.2c.13-.1.25-.22.37-.33a16.54,16.54,0,0,0,1.24-1.27l.29-.31.29-.33c.36-.44.7-.89,1-1.36s.71-1.12,1-1.71l.08-.18h0c0-.1.1-.2.14-.3a18.63,18.63,0,0,0,1.23-3.11l0-.11a1.46,1.46,0,0,0,.05-.2c0-.1.06-.21.08-.31a18.75,18.75,0,0,0,.38-1.87s0-.09,0-.14a19.77,19.77,0,0,0,.21-2.68,18.84,18.84,0,0,0-6.55-14.29l-.11-.11a18.82,18.82,0,0,0-11.6-4.51l-.68,0a19.16,19.16,0,0,0-4.38.52" transform="translate(-299.18 -285.73)"></path> <path class="cls-1" d="M612,393.93a22.11,22.11,0,0,0-14.93,5.44l-8.38-6.78v60h12V417.23A11.23,11.23,0,0,1,612,406a11.81,11.81,0,0,1,4,.68l5.5-10.8A23.76,23.76,0,0,0,612,393.93Z" transform="translate(-299.18 -285.73)"></path> <path class="cls-1" d="M548.26,393.7h-12V429a23,23,0,0,0,23.32,23.29,22.12,22.12,0,0,0,14.93-5.43l8.37,6.78V393.7h-12V429a11.22,11.22,0,0,1-11.27,11.27,11.08,11.08,0,0,1-8-3.18,10.75,10.75,0,0,1-3.25-8.09Z" transform="translate(-299.18 -285.73)"></path> </svg> 