<?xml version="1.0" encoding="UTF-8"?> <svg xmlns="http://www.w3.org/2000/svg" viewBox="0 0 389 64"> <g fill="none" fill-rule="evenodd"> <path d="M367.11 25.7A13.51 13.51 0 0 0 357 21.15a15.24 15.24 0 0 0-5.57 1L351.9 12h18.5a.36.36 0 0 0 .26-.11l2.95-3.05a.36.36 0 0 0 .08-.39.37.37 0 0 0-.34-.23h-25.07a.37.37 0 0 0-.36.35l-1 19.86a.33.33 0 0 0 .1.26.32.32 0 0 0 .26.12h.72c.1 0 .198-.04.27-.11a11.23 11.23 0 0 1 8.19-3.87 9.61 9.61 0 0 1 7.44 3.44 11.14 11.14 0 0 1 1.76 2.93 26.29 26.29 0 0 1 4.41-.9 14.75 14.75 0 0 0-2.96-4.6zM348.46 5.85h27.8a.34.34 0 0 0 .28-.13l1.11-1.29a28.48 28.48 0 0 0 2.62-3.89.33.33 0 0 0 0-.36A.35.35 0 0 0 380 0h-1.3a.36.36 0 0 0-.27.12 5 5 0 0 1-2.22 1.6 18.82 18.82 0 0 1-4.39.36H348.6a.36.36 0 0 0-.36.34l-.14 3.05a.38.38 0 0 0 .1.27.36.36 0 0 0 .26.11z" fill="#3D9E33"></path> <path d="M375.7 30.27c.35 0 .7.1 1 .16a16 16 0 0 0-7-6.47.32.32 0 0 0-.16 0 .37.37 0 0 0-.29.14.36.36 0 0 0 0 .46 18.38 18.38 0 0 1 3.18 5.57 21.13 21.13 0 0 1 3.27.14z" fill="#3D9E33"></path> <path d="M344.3 43.36H317.06a.37.37 0 0 0-.27.13l-3.1 3.6a.39.39 0 0 0-.05.4.36.36 0 0 0 .33.2c4.28-.37 7.84-.55 10.59-.55h13.72c2.24-1.33 4.22-2.56 6-3.71l.02-.07zM319.6 6.17a.3.3 0 0 0 .13 0A16.38 16.38 0 0 1 325.65 5a15.31 15.31 0 0 1 10.65 4 13.85 13.85 0 0 1 4.36 10.63.37.37 0 0 0 .27.35h.1a.34.34 0 0 0 .3-.17 9.31 9.31 0 0 0 1.54-5.09 12.58 12.58 0 0 0-4.08-9.31 13.85 13.85 0 0 0-9.86-3.89 12.23 12.23 0 0 0-9.6 4.05.38.38 0 0 0 0 .45.36.36 0 0 0 .27.15z" fill="#00578F"></path> <path d="M315.4 24.37h.13l1.61-.6a.37.37 0 0 0 .23-.44 13.87 13.87 0 0 1-.45-3.46 8.27 8.27 0 0 1 2.25-6.12 7.81 7.81 0 0 1 5.74-2.25 9.93 9.93 0 0 1 6.29 2.19 7 7 0 0 1 2.72 5.76 10.38 10.38 0 0 1-1.61 5.49c-.53.84-1.41 2-2.6 3.52-1.19 1.52-2.84 3.45-4.84 5.76l-5.36 6.1a.39.39 0 0 0-.06.39.37.37 0 0 0 .34.21h25.53a.36.36 0 0 0 .34-.23l2.54-6.42a.37.37 0 0 0 0-.34.37.37 0 0 0-.3-.16h-1a.4.4 0 0 0-.29.14A7.75 7.75 0 0 1 343 36.5a23.16 23.16 0 0 1-7 .76h-9l2.06-2.2.22-.22.21-.21c.09-.09.18-.19.28-.28l.16-.16c5.8-5.71 8.74-10.74 8.74-14.94a11.49 11.49 0 0 0-3.76-8.34 12.79 12.79 0 0 0-9.16-3.66 12.65 12.65 0 0 0-8.6 3.23 10.52 10.52 0 0 0-3.73 8.17 10.16 10.16 0 0 0 1.72 5.55.37.37 0 0 0 .26.17z" fill="#00578F"></path> <path d="M385.43 35.4a12.47 12.47 0 0 0-3.36-2.92 16.12 16.12 0 0 0-5.35-2c-.34-.06-.69-.12-1-.16a21.26 21.26 0 0 0-3.24-.18c-.816.01-1.63.064-2.44.16a26.08 26.08 0 0 0-4.41.9l-1 .32c-5.36 1.85-9.06 4.36-14.17 7.84-1.85 1.25-3.82 2.6-6.1 4.07-1.79 1.15-3.77 2.38-6 3.71l-.21.12A80.59 80.59 0 0 1 328 52.58 23.93 23.93 0 0 1 315.15 54c-3.63-.68-6.53-2.42-7.95-4.77a8.6 8.6 0 0 1-1.07-4.76 9.51 9.51 0 0 1 2.66-5.47 11.9 11.9 0 0 1 8.3-3.89.07.07 0 0 0 .07-.07.08.08 0 0 0-.06-.09 12.4 12.4 0 0 0-10.69 2.56 12 12 0 0 0-3.93 8.84 14.36 14.36 0 0 0 1.29 5.65c3.39 6.46 11.6 7.1 13.21 7.16h.95c.91 0 1.81-.05 2.71-.14 5.36-.54 9.55-2.53 14.19-5.36a162.44 162.44 0 0 0 16.73-12.15L353 40.4l.33-.25a52.63 52.63 0 0 1 5.83-4.15 37.06 37.06 0 0 1 7.24-3.48c2.59-.82 9.19-2.4 14.71.68a11.21 11.21 0 0 1 4.07 3.6 13.33 13.33 0 0 1 1.52 3c.14.46.25.86.34 1.27.144.762.221 1.535.23 2.31a21.17 21.17 0 0 1-.4 4.22 22.92 22.92 0 0 1-1.19 4 34.11 34.11 0 0 1-3.48 6.1 22.8 22.8 0 0 0 3.7-5.19 21.38 21.38 0 0 0 1.81-5.14 16.16 16.16 0 0 0 .43-4.08 13.74 13.74 0 0 0-.41-3.45 11.81 11.81 0 0 0-2.3-4.44z" fill="#E87511"></path> <path d="M367.3 37l.49-.17a20 20 0 0 1 5.78-.94 11.06 11.06 0 0 1 5.43 1.22 8.51 8.51 0 0 1 1.64 1.15l1.16.17a7.85 7.85 0 0 0-2.44-2 11.8 11.8 0 0 0-5.77-1.36 20.37 20.37 0 0 0-6 1 32.48 32.48 0 0 0-6.4 3.1 51.41 51.41 0 0 0-5.48 3.86l-.34.28c-.26.2-.58.45-.94.75a44.17 44.17 0 0 1 11.84-6.77l1.03-.29zM345.89 50.72c-2.78 2.06-5.9 4.24-9.08 6.17-5.07 3.09-9.69 5.27-15.75 5.89-1 .1-2.06.15-3.09.15h-1.08c-1.71-.06-9.44-.67-14.32-6.17a16.72 16.72 0 0 0 2.28 2.59 19.61 19.61 0 0 0 12 4.31h1.1c1.06 0 2.12-.06 3.17-.16a32.38 32.38 0 0 0 11.62-3.5c1.73-1 3.52-2.08 5.37-3.32a81.19 81.19 0 0 0 7.78-5.96zM359.12 55.51a2.93 2.93 0 0 1-.69.21.76.76 0 0 1-.56-.12 2.38 2.38 0 0 1-.57-.65 12.71 12.71 0 0 1-.68-1.32 11.28 11.28 0 0 1-.63-1.75c-.18-.61-.33-1.23-.45-1.82a28.367 28.367 0 0 1-.42-2.8l.35-.24c0 .21 0 .51.07.91s.11.92.2 1.45c.09.53.22 1.1.38 1.69.155.583.36 1.152.61 1.7a6.92 6.92 0 0 0 .85 1.48 7.9 7.9 0 0 0 .72.76l.2-.49a4.4 4.4 0 0 1-.72-.67 6.49 6.49 0 0 1-.9-1.51 10.08 10.08 0 0 1-.58-1.68c-.15-.58-.27-1.15-.36-1.68-.09-.53-.14-1-.17-1.44-.03-.44 0-.75 0-.94l-1.36 1c-.35.95-.71 2-1.06 3-.35 1-.69 2.17-1 3.28-.31 1.11-.54 2.24-.73 3.35a23.05 23.05 0 0 0-.36 3.2l1-.72a11.75 11.75 0 0 1 0-1.7c0-.61.1-1.27.18-2 .08-.73.21-1.37.36-2.08s.31-1.4.49-2.09.37-1.35.58-2c.21-.65.38-1.11.57-1.6.06.53.14 1.11.25 1.71.11.6.27 1.33.43 2 .16.67.33 1.23.5 1.77.101.434.228.861.38 1.28.104.236.221.466.35.69.098.165.208.322.33.47l.29.32c.089.089.172.182.25.28l1.88-.93.02-.32zM364.61 53.53l-.5-.1a2.14 2.14 0 0 1-.36-.12 15 15 0 0 1-.28-2.14c-.05-.77-.08-1.56-.08-2.35v-2.28c0-.73.06-1.39.09-2l-.8.25c0 .36-.05.79-.08 1.27s-.05 1-.08 1.62c-.03.62 0 1.19 0 1.8v1.83c0 .6 0 1.15.08 1.66.033.44.096.878.19 1.31l1.84-.75h-.02z" fill="#E87511"></path> <path d="M368.78 51.26c-.243.18-.5.341-.77.48a5.85 5.85 0 0 1-.82.33 6.27 6.27 0 0 1-1.52.33h-.78c-.15 0-.12-.24-.17-.37l-.16-.4a9.65 9.65 0 0 1-.28-1.12 9.908 9.908 0 0 1-.15-1c0-.3 0-.56-.06-.76-.06-.2 0-.29 0-.36l.69-.22c.301-.1.609-.18.92-.24a4.07 4.07 0 0 1 .81-.07l.33-.67L364 48v-.86-1c0-.29 0-.7.07-1 .07-.3.07-.6.11-.83l1.79-.33a16.43 16.43 0 0 0 2-.52h.14a1.26 1.26 0 0 0 .11-.25c.05-.11.1-.22.15-.35l.15-.35.12-.28h-.05l-.23.16-.33.19c-.13.07-.3.14-.49.22-.19.08-.42.16-.71.25-.54.17-1.09.33-1.63.47-.54.14-1.08.3-1.61.47a13.23 13.23 0 0 0-2.54 1.06 5.62 5.62 0 0 0-1.57 1.26 3 3 0 0 0-.68 1.44 3.91 3.91 0 0 0 .08 1.62l.78-.57-.19-.24a1 1 0 0 1-.13-.28 1.91 1.91 0 0 1 0-1.08 2.3 2.3 0 0 1 .56-1 4.36 4.36 0 0 1 1.07-.81 7.79 7.79 0 0 1 1.51-.64 5.54 5.54 0 0 1 1.31-.27c0 .14 0 .36-.07.67-.07.31-.06.74-.08 1.2-.02.46 0 1 0 1.52v1.68c0 .56.08 1.15.16 1.69a9.2 9.2 0 0 0 .34 1.52c.029.095.062.188.1.28.042.091.078.185.11.28a3 3 0 0 0 .58 0h.49a7.45 7.45 0 0 0 1.86-.39 5.32 5.32 0 0 0 .82-.35l.53-1.1s.17-.2.15-.22zM374.92 45.38c.12-.35.24-.67.34-1 .1-.33.18-.53.26-.73.08-.2.11-.32.13-.37.02-.05 0 0 0 0h-.83c-.14.34-.29.73-.45 1.14l-.53 1.42-.54 1.59c-.18.55-.34 1.1-.49 1.63-.15.53-.29 1.07-.4 1.58a12.09 12.09 0 0 0-.23 1.41l1.19-.16v-.27a1.5 1.5 0 0 1 0-.29c.09-.61.23-1.31.4-2.15a25.54 25.54 0 0 1 .73-2.76c.18-.32.29-.67.42-1.04z" fill="#E87511"></path> <path d="M381.43 42.3h-5.26c-.86 0-1.8-.06-2.8-.06a4.14 4.14 0 0 0-1.86.37 3.61 3.61 0 0 0-1.19.91 3.23 3.23 0 0 0-.63 1.14 3.51 3.51 0 0 0-.19 1.07l.91-.32a1.45 1.45 0 0 1-.11-.31 1.79 1.79 0 0 1 0-.39 1.4 1.4 0 0 1 .7-1.24 3.58 3.58 0 0 1 1.93-.45H376.12c-.06.14-.15.35-.26.63-.11.28-.26.68-.42 1.13-.16.45-.32.92-.49 1.44-.17.52-.32 1-.46 1.59-.14.59-.25 1.07-.34 1.59a8.52 8.52 0 0 0-.15 1.5 5.3 5.3 0 0 0 0 .57c.022.188.066.372.13.55l.61-.11a2.86 2.86 0 0 1-.23-.77 4.47 4.47 0 0 1-.07-.82 9.16 9.16 0 0 1 .11-1.33c.08-.48.17-1 .29-1.44.12-.44.24-1 .39-1.43.15-.43.3-.9.44-1.3s.27-.75.4-1l.28-.67h.63l1 .06 1 .06h1.1a3 3 0 0 0 .43 0l.76-.85s.17-.1.16-.12z" fill="#E87511"></path> <path fill="#59AC40" d="M278.22 54.04h-2.56l-2.14 3.06v-3.06h-2.21v7.65h2.21v-3.12l2.05 3.12h2.73l-2.91-3.94zM259.88 54.04h2.2v7.65h-2.2zM245.74 55.88h1.65v5.81h2.19v-5.81h1.65v-1.84h-5.49zM236.1 57.16a2.22 2.22 0 0 0-.52-.2 1.72 1.72 0 0 0-.44-.12.61.61 0 0 0-.17 0 1.06 1.06 0 0 0-.19-.06 1 1 0 0 1-.36-.2.55.55 0 0 1-.16-.38.57.57 0 0 0 0-.13.86.86 0 0 1 0-.15.62.62 0 0 1 .22-.26.69.69 0 0 1 .43-.12c.195.016.386.07.56.16.192.093.373.207.54.34l.12.1.1.08h.1l.75-1.61a3.16 3.16 0 0 0-1.3-.59 4.58 4.58 0 0 0-.91-.12h-.1a2.73 2.73 0 0 0-2 .67 2.22 2.22 0 0 0-.66 1.64 2.08 2.08 0 0 0 .4 1.41c.258.287.567.524.91.7l.39.15c.124.045.251.082.38.11a.07.07 0 0 0 .06 0h.06c.247.073.485.174.71.3a.64.64 0 0 1 .29.6v.13a.42.42 0 0 1-.06.15.45.45 0 0 1-.19.24.63.63 0 0 1-.43.13h-.09a.12.12 0 0 0-.09 0 2 2 0 0 1-.75-.29 6.11 6.11 0 0 1-.67-.49.46.46 0 0 0-.1-.1l-.1-.11h-.12l-1 1.63c.279.235.573.453.88.65a4 4 0 0 0 .81.39 3 3 0 0 0 .54.13c.186.02.374.02.56 0h.11a3.22 3.22 0 0 0 2-.59 2.16 2.16 0 0 0 .85-1.91 2.3 2.3 0 0 0-.43-1.49 2.52 2.52 0 0 0-.93-.79zM220.92 54.04h2.19v7.65h-2.19z"></path> <path d="M210.3 58.62c.386-.16.73-.41 1-.73.336-.436.5-.98.46-1.53a2 2 0 0 0-.4-1.39 2.45 2.45 0 0 0-1.7-.88H206v7.65h2.2v-2.4l1.47 2.35h2.64l-2.1-3.06.09-.01zm-.67-2.07v.14a1.09 1.09 0 0 1-.23.54 1 1 0 0 1-.76.25h-.4v-1.76h.4c.268-.015.532.07.74.24a1 1 0 0 1 .25.53v.06z" fill="#59AC40" fill-rule="nonzero"></path> <path d="M194.67 58.55v.31c0 .12 0 .24-.06.37a1.64 1.64 0 0 1-.33.57.91.91 0 0 1-.73.28 1 1 0 0 1-.74-.28 1.8 1.8 0 0 1-.32-.57 1.4 1.4 0 0 1-.07-.37V54h-2.2v4.6a3.12 3.12 0 0 0 .92 2.51 3.45 3.45 0 0 0 2.36.8h.1a3.44 3.44 0 0 0 2.38-.79 3.14 3.14 0 0 0 .91-2.51V54h-2.2l-.02 4.55z" fill="#59AC40"></path> <path d="M177.35 53.82h-.11a3.68 3.68 0 0 0-3 1.23 4.47 4.47 0 0 0 0 5.65 3.74 3.74 0 0 0 3 1.21h.11a3.7 3.7 0 0 0 3-1.21 4.25 4.25 0 0 0 1-2.82 4.35 4.35 0 0 0-1-2.82 3.67 3.67 0 0 0-3-1.24zm1.32 5.54a1.77 1.77 0 0 1-.93.64l-.23.06a1 1 0 0 1-.23 0h-.25l-.23-.06a2 2 0 0 1-.9-.65 2.32 2.32 0 0 1-.4-1.47 2.26 2.26 0 0 1 .4-1.47 1.89 1.89 0 0 1 .9-.65.78.78 0 0 1 .25-.07 1.1 1.1 0 0 1 .24 0h.22c.078.013.155.033.23.06.368.114.692.337.93.64.317.43.47.958.43 1.49a2.34 2.34 0 0 1-.43 1.48z" fill="#59AC40" fill-rule="nonzero"></path> <path fill="#59AC40" d="M159.44 55.88h1.63v5.81h2.21v-5.81h1.63v-1.84h-5.47zM103.13 43.9a4.13 4.13 0 0 1 2.79.69 10.92 10.92 0 0 1 0-7.68H0v11.24h100.72c0-1.92.13-3.43 2.41-4.25z"></path> <path d="M104.18 56a8.77 8.77 0 0 1-3.46-5.21H0v11h116.2l-1.07-2.2c-6.01-1.02-8.13-1.3-10.95-3.59zM107 32.66a39.63 39.63 0 0 1-10-9.59H0v11.24h106.59l.41-1.65zM90.16 9.23H0v11.1h95.25a39.8 39.8 0 0 1-5.09-11.1z" fill="#0063A3"></path> <path d="M144.9 21.29a12.36 12.36 0 0 0-3.07-.27 24.62 24.62 0 0 0-2.53 2.87h-.54a28 28 0 0 1 .26-3.42c-.39-1.78-1.46-1.78-2.66-3-.36-2.76-3.48-3.47-3.07-6.47.26-1.37 1.87-.14 2.94-1 1.46-.55 2.66 2.2 3.86 0 .13-.14-.26-.55-.26-1l.8-.27c.93-4.11-4-2.6-5.88-4.52.27-1.65-1.33-1.24-2.13-2.06-.4 0-.13-.68-.67-.68-.81.27-1.88.27-2.27 1.64-.13-.82-.94-1.1-1.33-1.23-.13.68.67 1.23.26 2.19-1.87.14-2.94 1.64-3.61 3l-.13-.07c-.26 1.64-1.86 2.74-1.86 4.52.4.69.94-.55 1.6-.14a3.69 3.69 0 0 0-1.6 1.65 3.17 3.17 0 0 0 0 2.19c.79-.27 1.6-1.37 2.27-1.64-.28 1.37-1.07 2.05-1.87 3.15l-.13 2.05a9.54 9.54 0 0 1-2.4-2.32c-.94-.55-1.35-1.79-2.15-2.88-3.6-4.53-8.94-1.1-13.07-1.51-5.21-1-10.15-2.74-13.89-6.85a8.4 8.4 0 0 0 1.07 3.83 8.55 8.55 0 0 0 3.61 4.53c-1.2.27-2-.69-2.94-1.1v.27a13.08 13.08 0 0 0 2.94 4.66c1.2 1.65 3.33 1.1 4.66 2.06-.53.68-1.59.41-2.53.41.94 1.92 2.81 3.42 4.68 3.42.53.14 1.2-.54 1.33.28-.13 1-1.33.82-2 .82a11.55 11.55 0 0 0 3.2 3.56c3.2.14 5.47 4 8.67 1.92 1.48 1.51 3.07-.68 4.68-.54 0 .27-.41.54-.41.68-2 .69-4 1.64-4.53 3.84 0 1.78-1.73.68-2.53 1-2 .13-2.94 2.19-3.61 4.11-.94 3.29 1.87 6.16-.66 8.49a2.07 2.07 0 0 1-2.28-.54 2.55 2.55 0 0 0 1.06 2 2.46 2.46 0 0 0 2.4-.68c0 .54-.39.82-.66 1.37-1.46.68-2.67-.69-3.74-1.24 0 1.24.81 1.65 1.2 2.47.54.69-.79.41-.79.69 2 2.05 4.67 4 7.47 3.15 1.2-.28 2-1.78 2.68-2.88.26-2.74.26-5.76-1.2-8.09-1.07-1.36-1.07-3.29-1.48-4.79.41-.82 1.07-1.78 2-1.92a8.2 8.2 0 0 0 1.88 3.56c.67 2.06 3.2 2.88 2.92 5.07-.92 2.2-2.92 4.11-2.66 6.44a14.48 14.48 0 0 1 3.33 7.13c1.2 0 .81 1.64 1.2 2.19 1.07.42 2.28 0 3.22 0-.54-2.19-2.28-3.15-3.22-4.93-.13-.41-.39-1.23 0-1.51a2.81 2.81 0 0 1 1.87 2.33c1.07-.13.81 1.51 1.07 2.19.54.55 1.2 1.65 2 1.24.28-.41.15-.55.15-.82.66-2.2-1.21-3-1.48-4.53-1.33-1.37-2.94-1.64-4-3.42-.66-.82.39-1.24 1.06-2.06 2.94-2.33 3.88-6.44 3.88-10 1.59-2.74 5.2-3.29 7.34-6 1.6-1.51 2.54-3.57 3.61-5.21l.39.41c2 .14 3.6-2.47 5.21-3.7.26.41.67.82 1.07 1.51.4.69-.14 1.78.39 2.33s-.29 1.25-.39 1.78c.52 1.09 1.19 2.47 2.26 2.88.41-1.51.13-2.88.28-4.39v-.39c.26-2.06-1.87-3.15-1.74-5.21 1.59-1.64 3.61.14 5.2.55.4.28.27 1 .27 1.37a4.83 4.83 0 0 0 3.74-1.92c-.41-.27-.94-.55-1.33-.82-2.02-1.78-4.58-.14-6.68-1.78zm-38.44 5.89c.79-.14 1.33-1.23 2-.68-.4.5-1.21.5-2 .68zm17.75-7.53c1.13.44 2.29.805 3.47 1.09a5.57 5.57 0 0 1-3.47-1.09z" fill="#0063A3" fill-rule="nonzero"></path> <path d="M232.36 25.06h-14v9.18h5c0 2.68-1.58 4.79-3.84 4.79-3.24 0-5.14-4.39-5.14-9.75 0-4.85 1.39-9.81 5.18-9.81a3.73 3.73 0 0 1 3.62 2.85l8.13-2.57c-1.41-6.49-5.46-11.85-12.07-11.85-10 0-13.9 10.77-13.9 21.44 0 12.08 5.25 20.88 14 20.88 8.53 0 13-8.51 13-20.37l.02-4.79zM283 35.84c0-6.73-2.52-9.7-5.74-11.41-2.64-1.42-4.5-1.42-4.5-3.82 0-2.22 1.71-2.34 2.67-2.34 1.915.1 3.799.526 5.57 1.26v-10a16.88 16.88 0 0 0-7.27-1.59c-5.91 0-9.93 5.19-9.93 13.91 0 8.72 4.84 10.55 7 11.52 1.54.74 3.22 1.42 3.22 3.59a2.35 2.35 0 0 1-2.67 2.57c-2.13 0-5.28-1.54-7.09-2.63v11a16.19 16.19 0 0 0 8.18 2.35c7.35-.03 10.56-7 10.56-14.41z" fill="#0063A3"></path> <path d="M251.06 49h9.7l-8.4-39.92h-10.43L233.48 49h9.71l1-5.82h5.95l.92 5.82zm-5.56-15.8l1.62-10.15 1.63 10.15h-3.25zM181.25 22.83c0-5.64-1.94-13.74-10.34-13.74h-11.47V49h9.48V36.63h2c8.34 0 10.33-8.09 10.33-13.8zM170 26.26h-1.05v-6.79H170c.85 0 2.26.23 2.26 3.36s-1.35 3.43-2.26 3.43z" fill="#0063A3" fill-rule="nonzero"></path> <path fill="#0063A3" d="M185.36 49.01h16.61V37.43h-7.13v-3.82h6.42v-9.58h-6.42v-3.36h7.13V9.09h-16.61z"></path> </g> </svg> 