<?xml version="1.0" encoding="UTF-8" standalone="no"?>
<!-- Created with Inkscape (http://www.inkscape.org/) -->

<svg
   width="3.31145mm"
   height="4.1684198mm"
   viewBox="0 0 3.31145 4.1684198"
   version="1.1"
   id="svg35"
   xml:space="preserve"
   xmlns:inkscape="http://www.inkscape.org/namespaces/inkscape"
   xmlns:sodipodi="http://sodipodi.sourceforge.net/DTD/sodipodi-0.dtd"
   xmlns="http://www.w3.org/2000/svg"
   xmlns:svg="http://www.w3.org/2000/svg"><sodipodi:namedview
     id="namedview37"
     pagecolor="#ffffff"
     bordercolor="#000000"
     borderopacity="0.25"
     inkscape:showpageshadow="2"
     inkscape:pageopacity="0.0"
     inkscape:pagecheckerboard="0"
     inkscape:deskcolor="#d1d1d1"
     inkscape:document-units="mm"
     showgrid="false" /><defs
     id="defs32" /><path
     d="m 0.99448,3.83504 c 0.69497,0 1.18322,-0.1785 1.46544,-0.53622 C 2.74144,2.94181 2.88255,2.53682 2.88255,2.08421 2.88255,1.57197 2.71568,1.15252 2.38231,0.82479 2.04858,0.49706 1.58609,0.33337 0.99448,0.33337 H 0.40499 V 3.83504 Z M 0,0 h 1.03611 c 0.70661,0 1.23366,0.16933 1.5815,0.50905 0.34713,0.33938 0.56268,0.71367 0.64594,1.12254 0.0159,0.0755 0.0279,0.15099 0.0356,0.22649 0.008,0.0751 0.0123,0.15063 0.0123,0.22613 0,0.0635 -0.003,0.12629 -0.009,0.18767 -0.006,0.0614 -0.0131,0.12418 -0.0208,0.18768 C 3.21005,2.88819 3.00084,3.28048 2.65335,3.63572 2.30587,3.99097 1.76682,4.16842 1.03622,4.16842 H 1.1e-4 V 0"
     style="fill:#7a7b7c;fill-opacity:1;fill-rule:nonzero;stroke:none;stroke-width:0.0352778"
     id="path657" /></svg>
