<?xml version="1.0" encoding="UTF-8" standalone="no"?>
<!-- Created with Inkscape (http://www.inkscape.org/) -->

<svg
   width="4.2449698mm"
   height="4.409481mm"
   viewBox="0 0 4.2449698 4.409481"
   version="1.1"
   id="svg35"
   xml:space="preserve"
   xmlns:inkscape="http://www.inkscape.org/namespaces/inkscape"
   xmlns:sodipodi="http://sodipodi.sourceforge.net/DTD/sodipodi-0.dtd"
   xmlns="http://www.w3.org/2000/svg"
   xmlns:svg="http://www.w3.org/2000/svg"><sodipodi:namedview
     id="namedview37"
     pagecolor="#ffffff"
     bordercolor="#000000"
     borderopacity="0.25"
     inkscape:showpageshadow="2"
     inkscape:pageopacity="0.0"
     inkscape:pagecheckerboard="0"
     inkscape:deskcolor="#d1d1d1"
     inkscape:document-units="mm"
     showgrid="false" /><defs
     id="defs32" /><path
     d="M 0.65199,1.18784 C 0.72499,1.06402 0.76558,0.99875 0.91551,0.8453 1.1547,0.60082 1.39917,0.49111 1.49372,0.45265 c 0.0695,-0.0282 0.35136,-0.11923 0.629,-0.11923 0.31997,0 0.56268,0.0917 0.63394,0.121 0.0991,0.0402 0.33831,0.14922 0.57326,0.38805 0.0688,0.0702 0.22684,0.2339 0.32985,0.4378 0.1203,0.23848 0.18168,0.52423 0.19579,0.66393 H 0.4181 C 0.4378,1.73606 0.4894,1.46266 0.65199,1.18784 Z m 3.59198,1.09891 0.001,-0.0833 C 4.24497,1.52435 4.03295,0.98743 3.60785,0.59231 3.18276,0.1972 2.68781,0 2.12266,0 1.47108,0 0.95461,0.21837 0.57255,0.65476 0.19085,1.09149 0,1.60761 0,2.20345 0,2.87831 0.2106,3.41313 0.63182,3.80824 1.05268,4.20335 1.56527,4.39914 2.13818,4.40831 2.24084,4.41031 2.5153,4.41631 2.77812,4.35681 3.11926,4.28021 3.45863,4.12856 3.78036,3.80683 3.88055,3.70628 4.05376,3.50379 4.15819,3.28224 L 3.83928,3.1048 C 3.73803,3.28648 3.64842,3.41877 3.50343,3.57223 3.39125,3.69076 3.19052,3.83681 2.98273,3.9303 2.76577,4.0287 2.55093,4.05906 2.38371,4.06929 2.22779,4.07829 2.00589,4.07 1.95227,4.06429 1.71838,4.04099 1.5501,3.97719 1.49295,3.95387 1.39915,3.91537 1.15464,3.80606 0.91545,3.56088 0.76552,3.40848 0.67874,3.26455 0.65263,3.2201 0.43779,2.85427 0.41028,2.49337 0.4064,2.28665 h 3.83751"
     style="fill:#7a7b7c;fill-opacity:1;fill-rule:nonzero;stroke:none;stroke-width:0.0352778"
     id="path643" /></svg>
