<?xml version="1.0" encoding="UTF-8" standalone="no"?>
<!-- Created with Inkscape (http://www.inkscape.org/) -->

<svg
   width="4.24547mm"
   height="4.409481mm"
   viewBox="0 0 4.24547 4.409481"
   version="1.1"
   id="svg35"
   xml:space="preserve"
   xmlns:inkscape="http://www.inkscape.org/namespaces/inkscape"
   xmlns:sodipodi="http://sodipodi.sourceforge.net/DTD/sodipodi-0.dtd"
   xmlns="http://www.w3.org/2000/svg"
   xmlns:svg="http://www.w3.org/2000/svg"><sodipodi:namedview
     id="namedview37"
     pagecolor="#ffffff"
     bordercolor="#000000"
     borderopacity="0.25"
     inkscape:showpageshadow="2"
     inkscape:pageopacity="0.0"
     inkscape:pagecheckerboard="0"
     inkscape:deskcolor="#d1d1d1"
     inkscape:document-units="mm"
     showgrid="false" /><defs
     id="defs32" /><path
     d="M 0.6522,1.18784 C 0.7254,1.06402 0.76562,0.99875 0.91541,0.8453 1.15491,0.60082 1.39953,0.49111 1.49393,0.45265 1.56323,0.42445 1.84572,0.33342 2.12272,0.33342 c 0.31997,0 0.56293,0.0917 0.63416,0.121 0.0992,0.0402 0.33831,0.14922 0.57326,0.38805 0.0687,0.0702 0.22712,0.2339 0.32963,0.4378 C 3.78007,1.51875 3.84181,1.8045 3.8556,1.9442 H 0.41863 C 0.43803,1.73606 0.48933,1.46266 0.6522,1.18784 Z m 3.59227,1.09891 0.001,-0.0833 C 4.24547,1.52435 4.03281,0.98743 3.60796,0.59231 3.18297,0.1972 2.68785,0 2.12259,0 1.47147,0 0.95469,0.21837 0.57284,0.65476 0.19085,1.09149 0,1.60761 0,2.20345 c 0,0.67486 0.21057,1.20968 0.63182,1.60479 0.42101,0.39511 0.93405,0.5909 1.50647,0.60007 0.10238,0.002 0.37705,0.008 0.63983,-0.0515 C 3.11961,4.28021 3.45888,4.12856 3.78065,3.80683 3.88098,3.70628 4.05391,3.50379 4.15823,3.28224 L 3.83921,3.1048 C 3.73793,3.28648 3.64836,3.41877 3.50336,3.57223 3.39175,3.69076 3.19084,3.83681 2.98277,3.9303 2.76613,4.0287 2.55143,4.05906 2.38358,4.06929 2.22786,4.07829 2.006,4.07 1.95266,4.06429 1.71841,4.04099 1.55028,3.97719 1.4931,3.95387 1.3991,3.91537 1.15478,3.80606 0.91528,3.56088 0.76591,3.40848 0.67867,3.26455 0.6525,3.2201 0.43794,2.85427 0.41038,2.49337 0.4065,2.28665 h 3.83784"
     style="fill:#7a7b7c;fill-opacity:1;fill-rule:nonzero;stroke:none;stroke-width:0.0352778"
     id="path649" /></svg>
