<?xml version="1.0" encoding="UTF-8" standalone="no"?>
<!-- Created with Inkscape (http://www.inkscape.org/) -->

<svg
   width="4.5021501mm"
   height="4.4005499mm"
   viewBox="0 0 4.5021501 4.4005499"
   version="1.1"
   id="svg35"
   xml:space="preserve"
   xmlns:inkscape="http://www.inkscape.org/namespaces/inkscape"
   xmlns:sodipodi="http://sodipodi.sourceforge.net/DTD/sodipodi-0.dtd"
   xmlns="http://www.w3.org/2000/svg"
   xmlns:svg="http://www.w3.org/2000/svg"><sodipodi:namedview
     id="namedview37"
     pagecolor="#ffffff"
     bordercolor="#000000"
     borderopacity="0.25"
     inkscape:showpageshadow="2"
     inkscape:pageopacity="0.0"
     inkscape:pagecheckerboard="0"
     inkscape:deskcolor="#d1d1d1"
     inkscape:document-units="mm"
     showgrid="false" /><defs
     id="defs32" /><path
     d="m 0.97049,3.56094 c 0.3616,0.34149 0.78846,0.51259 1.28059,0.51259 0.49247,0 0.91898,-0.1711 1.28023,-0.51259 C 3.8929,3.2198 4.07317,2.76684 4.07317,2.20345 4.07317,1.63548 3.8929,1.18181 3.53131,0.84243 3.17006,0.50306 2.74355,0.33338 2.25108,0.33338 1.75895,0.33338 1.33209,0.50412 0.97049,0.84526 0.60925,1.1871 0.42863,1.63971 0.42863,2.20345 c 0,0.56339 0.18062,1.01635 0.54186,1.35749 z M 0.60748,0.65476 C 1.01247,0.21837 1.55998,0 2.25108,0 c 0.59936,0 1.12465,0.1972 1.57515,0.59231 0.4505,0.39512 0.67592,0.93204 0.67592,1.61114 0,0.6791 -0.22542,1.21461 -0.67592,1.60761 C 3.37573,4.20441 2.85044,4.40055 2.25108,4.40055 1.64394,4.40055 1.11654,4.20335 0.66993,3.80859 0.22331,3.41313 0,2.87831 0,2.20345 0,1.60761 0.20249,1.09149 0.60748,0.65476"
     style="fill:#7a7b7c;fill-opacity:1;fill-rule:nonzero;stroke:none;stroke-width:0.0352778"
     id="path647" /></svg>
