<?xml version="1.0" encoding="UTF-8" standalone="no"?>
<!-- Created with Inkscape (http://www.inkscape.org/) -->

<svg
   width="2.46591mm"
   height="4.1684299mm"
   viewBox="0 0 2.46591 4.1684299"
   version="1.1"
   id="svg35"
   xml:space="preserve"
   xmlns:inkscape="http://www.inkscape.org/namespaces/inkscape"
   xmlns:sodipodi="http://sodipodi.sourceforge.net/DTD/sodipodi-0.dtd"
   xmlns="http://www.w3.org/2000/svg"
   xmlns:svg="http://www.w3.org/2000/svg"><sodipodi:namedview
     id="namedview37"
     pagecolor="#ffffff"
     bordercolor="#000000"
     borderopacity="0.25"
     inkscape:showpageshadow="2"
     inkscape:pageopacity="0.0"
     inkscape:pagecheckerboard="0"
     inkscape:deskcolor="#d1d1d1"
     inkscape:document-units="mm"
     showgrid="false" /><defs
     id="defs32" /><path
     d="m 0.82197,1.91734 c 0.41275,0 0.69286,-0.0773 0.83961,-0.23213 C 1.80869,1.53035 1.88207,1.34373 1.88207,1.12536 1.88207,0.78422 1.78397,0.56656 1.58714,0.47342 1.391,0.37992 1.16769,0.33337 0.91757,0.33337 H 0.40534 V 1.91734 Z M 0,0 h 1.11407 c 0.0632,0 0.14287,0.006 0.23777,0.018 0.0956,0.0116 0.19474,0.0374 0.2981,0.0769 0.16263,0.0596 0.3115,0.16792 0.44662,0.32456 0.13511,0.15734 0.20249,0.39264 0.20249,0.70591 0,0.2741 -0.0945,0.52105 -0.28293,0.74154 C 1.82739,2.08739 1.48484,2.21333 0.98883,2.24508 L 2.46591,4.16843 H 1.98931 L 0.55986,2.25108 H 0.40534 V 4.16843 H 0 V 10e-6"
     style="fill:#7a7b7c;fill-opacity:1;fill-rule:nonzero;stroke:none;stroke-width:0.0352778"
     id="path653" /></svg>
