<?xml version="1.0" encoding="UTF-8" standalone="no"?>
<!-- Created with Inkscape (http://www.inkscape.org/) -->

<svg
   width="2.6860399mm"
   height="4.40132mm"
   viewBox="0 0 2.6860399 4.40132"
   version="1.1"
   id="svg35"
   xml:space="preserve"
   xmlns:inkscape="http://www.inkscape.org/namespaces/inkscape"
   xmlns:sodipodi="http://sodipodi.sourceforge.net/DTD/sodipodi-0.dtd"
   xmlns="http://www.w3.org/2000/svg"
   xmlns:svg="http://www.w3.org/2000/svg"><sodipodi:namedview
     id="namedview37"
     pagecolor="#ffffff"
     bordercolor="#000000"
     borderopacity="0.25"
     inkscape:showpageshadow="2"
     inkscape:pageopacity="0.0"
     inkscape:pagecheckerboard="0"
     inkscape:deskcolor="#d1d1d1"
     inkscape:document-units="mm"
     showgrid="false" /><defs
     id="defs32" /><path
     d="m 2.15038,0.82206 -0.012,-0.03 -0.018,-0.0296 C 2.06498,0.65521 1.97962,0.55679 1.86462,0.46754 1.74891,0.37824 1.59439,0.33348 1.40001,0.33348 c -0.21061,0 -0.36936,0.0427 -0.47625,0.12841 -0.1076,0.0854 -0.18098,0.1778 -0.22049,0.27693 -0.0201,0.0395 -0.0328,0.079 -0.0388,0.11889 -0.006,0.0399 -0.009,0.0773 -0.009,0.11324 0,0.21061 0.078,0.375 0.2353,0.49424 0.15663,0.11889 0.3302,0.22225 0.5207,0.30939 0.0317,0.0162 0.0635,0.031 0.0956,0.0448 l 0.0949,0.0448 0.0328,0.0148 0.0328,0.0148 C 1.92192,2.0169 2.15511,2.16401 2.36748,2.3344 2.57985,2.50549 2.68604,2.77114 2.68604,3.13273 2.68604,3.47422 2.56609,3.77056 2.32585,4.02279 2.08561,4.27503 1.75894,4.40132 1.34619,4.40132 1.04844,4.40132 0.80714,4.33962 0.62264,4.21647 0.43814,4.0937 0.29209,3.95859 0.18484,3.81148 0.14534,3.75188 0.10934,3.69365 0.0776,3.63579 0.0459,3.57829 0.0201,3.52361 0,3.47211 l 0.38135,-0.1905 0.0176,0.0504 0.0243,0.0508 c 0.0713,0.17463 0.18521,0.33338 0.34219,0.47625 0.15699,0.14323 0.36231,0.21449 0.61631,0.21449 0.26987,0 0.4833,-0.0903 0.64029,-0.27128 0.15663,-0.18027 0.2353,-0.39582 0.2353,-0.64594 0,-0.1905 -0.0448,-0.3422 -0.13405,-0.45579 C 2.03399,2.58765 1.90174,2.47935 1.72712,2.37598 1.67172,2.34458 1.60999,2.31178 1.54226,2.27788 1.47486,2.24398 1.4015,2.20948 1.32213,2.17381 1.04414,2.04258 0.79402,1.88983 0.57177,1.71485 0.34952,1.54058 0.23839,1.29645 0.23839,0.98248 c 0,-0.0554 0.005,-0.115 0.0148,-0.1785 0.01,-0.0631 0.0268,-0.127 0.0508,-0.19086 C 0.36359,0.45861 0.47544,0.3175 0.64054,0.1905 0.80529,0.0635 1.05223,0 1.38173,0 c 0.0677,0 0.14569,0.005 0.23495,0.0148 0.0896,0.01 0.17991,0.0328 0.27128,0.0684 0.11077,0.0399 0.21837,0.10231 0.32174,0.18803 0.10301,0.0854 0.1905,0.20532 0.26176,0.35984 L 2.15008,0.82192"
     style="fill:#7a7b7c;fill-opacity:1;fill-rule:nonzero;stroke:none;stroke-width:0.0352778"
     id="path659" /></svg>
